{"title":"Strange Days 1995 DVDrip English Klam","uid":6721619,"size":2207162822,"categoryP":"video","categoryS":"movies","magnet":"?xt=urn:btih:4987038b0540ea8a0a3c0b3b7262f354abcd9743&amp;dn=Strange+Days+1995+DVDrip+English+Klam&amp;tr=udp%3A%2F%2Ftracker.openbittorrent.com%3A80&amp;tr=udp%3A%2F%2Fopen.demonii.com%3A1337&amp;tr=udp%3A%2F%2Ftracker.coppersurfer.tk%3A6969&amp;tr=udp%3A%2F%2Fexodus.desync.com%3A6969","seeders":1,"leechers":0,"uploader":"Klambake","files":-1,"time":1317814056,"description":"With: Ralph Fiennes, Angela Bassett en Juliette Lewis\n\n1999: tijdens de laatste dagen van het oude Millennium is Lenny Nero, een ex-agent, een dealer van data-discs. Deze discs bevatten opnames van herinneringen en emoties. Op een dag ontvangt hij een disc met daarop de herinneringen van een moordenaar die een prostituee vermoordt. Lenny gaat op onderzoek uit en komt steeds dieper in een cirkel van chantage, moord en verkrachtingen.\n\nA former cop turned street-hustler accidentally uncovers a police conspiracy in 1999 Los Angeles. \n\n------------------ Dutch Friends ------------------\nYou can find my Friends at: http://www.Film-Test.nl \n------ They got my dutch subs ----- and more ------\n\nGeneral:\n\nComplete name                    : Strange Days\\Strange Days.avi\nFormat                           : AVI\nFormat/Info                      : Audio Video Interleave\nFile size                        : 2.06 GiB\nDuration                         : 2h 19mn\nOverall bit rate                 : 2 114 Kbps\n\nVideo:\n\nFormat                           : MPEG-4 Visual\nFormat profile                   : Simple@L3\nFormat settings, BVOP            : No\nFormat settings, QPel            : No\nFormat settings, GMC             : No warppoints\nFormat settings, Matrix          : Default (H.263)\nCodec ID                         : XVID\nCodec ID/Hint                    : XviD\nDuration                         : 2h 19mn\nBit rate                         : 1 655 Kbps\nWidth                            : 720 pixels\nHeight                           : 304 pixels\nDisplay aspect ratio             : 2.35:1\nFrame rate                       : 25.000 fps\nColor space                      : YUV\nChroma subsampling               : 4:2:0\nBit depth                        : 8 bits\nScan type                        : Progressive\nBits/(Pixel*Frame)               : 0.302\nStream size                      : 1.61 GiB (78%)\nWriting library                  : XviD 1.1.2 (UTC 2006-11-01)\n\nAudio:\n\nFormat                           : AC-3\nFormat/Info                      : Audio Coding 3\nMode extension                   : CM (complete main)\nCodec ID                         : 2000\nDuration                         : 2h 19mn\nBit rate mode                    : Constant\nBit rate                         : 448 Kbps\nChannel(s)                       : 6 channels\nChannel positions                : Front: L C R, Side: L R, LFE\nSampling rate                    : 48.0 KHz\nBit depth                        : 16 bits\nStream size                      : 446 MiB (21%)\nAlignment                        : Aligned on interleaves\nInterleave, duration             : 32 ms (0.80 video frame)\nInterleave, preload duration     : 160 ms\n\n\n","torrent":{"xt":"urn:btih:4987038b0540ea8a0a3c0b3b7262f354abcd9743","amp;dn":"Strange+Days+1995+DVDrip+English+Klam","amp;tr":["udp%3A%2F%2Ftracker.openbittorrent.com%3A80","udp%3A%2F%2Fopen.demonii.com%3A1337","udp%3A%2F%2Ftracker.coppersurfer.tk%3A6969","udp%3A%2F%2Fexodus.desync.com%3A6969"],"infoHash":"4987038b0540ea8a0a3c0b3b7262f354abcd9743","infoHashBuffer":{"type":"Buffer","data":[73,135,3,139,5,64,234,138,10,60,11,59,114,98,243,84,171,205,151,67]},"announce":[],"urlList":[]}}